<svg width="28" height="28" viewBox="0 0 28 28" fill="none" xmlns="http://www.w3.org/2000/svg">
<g id="Icon">
<path id="Icon_2" fill-rule="evenodd" clip-rule="evenodd" d="M21.4666 4.66666H6.53329C5.50663 4.66666 4.66663 5.50666 4.66663 6.53332V21.4667C4.66663 22.4933 5.50663 23.3333 6.53329 23.3333H21.4666C22.4933 23.3333 23.3333 22.4933 23.3333 21.4667V6.53332C23.3333 5.50666 22.4933 4.66666 21.4666 4.66666ZM10.2666 21.4667H7.46663C6.95329 21.4667 6.53329 21.0467 6.53329 20.5333V17.7333H10.2666V21.4667ZM10.2666 15.8667H6.53329V12.1333H10.2666V15.8667ZM10.2666 10.2667H6.53329V7.46666C6.53329 6.95332 6.95329 6.53332 7.46663 6.53332H10.2666V10.2667ZM15.8666 21.4667H12.1333V17.7333H15.8666V21.4667ZM15.8666 15.8667H12.1333V12.1333H15.8666V15.8667ZM15.8666 10.2667H12.1333V6.53332H15.8666V10.2667ZM20.5333 21.4667H17.7333V17.7333H21.4666V20.5333C21.4666 21.0467 21.0466 21.4667 20.5333 21.4667ZM21.4666 15.8667H17.7333V12.1333H21.4666V15.8667ZM21.4666 10.2667H17.7333V6.53332H20.5333C21.0466 6.53332 21.4666 6.95332 21.4666 7.46666V10.2667Z" fill="#C3CAD9"/>
</g>
</svg>
