<svg width="28" height="28" viewBox="0 0 28 28" fill="none" xmlns="http://www.w3.org/2000/svg">
<g id="Icon">
<path id="Icon_2" fill-rule="evenodd" clip-rule="evenodd" d="M6.99998 13.0667C6.22531 13.0667 5.59998 13.692 5.59998 14.4667C5.59998 15.2413 6.22531 15.8667 6.99998 15.8667C7.77464 15.8667 8.39998 15.2413 8.39998 14.4667C8.39998 13.692 7.77464 13.0667 6.99998 13.0667ZM6.99998 7.46667C6.22531 7.46667 5.59998 8.09201 5.59998 8.86667C5.59998 9.64134 6.22531 10.2667 6.99998 10.2667C7.77464 10.2667 8.39998 9.64134 8.39998 8.86667C8.39998 8.09201 7.77464 7.46667 6.99998 7.46667ZM6.99998 18.6667C6.22531 18.6667 5.59998 19.3013 5.59998 20.0667C5.59998 20.832 6.23464 21.4667 6.99998 21.4667C7.76531 21.4667 8.39998 20.832 8.39998 20.0667C8.39998 19.3013 7.77464 18.6667 6.99998 18.6667ZM10.7333 21H21.9333C22.4466 21 22.8666 20.58 22.8666 20.0667C22.8666 19.5533 22.4466 19.1333 21.9333 19.1333H10.7333C10.22 19.1333 9.79998 19.5533 9.79998 20.0667C9.79998 20.58 10.22 21 10.7333 21ZM10.7333 15.4H21.9333C22.4466 15.4 22.8666 14.98 22.8666 14.4667C22.8666 13.9533 22.4466 13.5333 21.9333 13.5333H10.7333C10.22 13.5333 9.79998 13.9533 9.79998 14.4667C9.79998 14.98 10.22 15.4 10.7333 15.4ZM9.79998 8.86667C9.79998 9.38001 10.22 9.80001 10.7333 9.80001H21.9333C22.4466 9.80001 22.8666 9.38001 22.8666 8.86667C22.8666 8.35334 22.4466 7.93334 21.9333 7.93334H10.7333C10.22 7.93334 9.79998 8.35334 9.79998 8.86667Z" fill="#C3CAD9"/>
</g>
</svg>
